<?xml version="1.0" encoding="UTF-8"?>
<svg width="22px" height="13px" viewBox="0 0 22 13" version="1.1" xmlns="http://www.w3.org/2000/svg" xmlns:xlink="http://www.w3.org/1999/xlink">
    <!-- Generator: Sketch 45.2 (43514) - http://www.bohemiancoding.com/sketch -->
    <title>Page 1</title>
    <desc>Created with Sketch.</desc>
    <defs></defs>
    <g id="Page-1" stroke="none" stroke-width="1" fill="none" fill-rule="evenodd">
        <g id="01-listing" transform="translate(-25.000000, -605.000000)" fill="#5B5855">
            <g id="tabbar" transform="translate(0.000000, 583.000000)">
                <g id="Page-1" transform="translate(25.000000, 22.000000)">
                    <path d="M21.5,6 L0.5,6 C0.224,6 0,6.224 0,6.5 C0,6.776 0.224,7 0.5,7 L21.5,7 C21.776,7 22,6.776 22,6.5 C22,6.224 21.776,6 21.5,6" id="Fill-1"></path>
                    <path d="M0.5,1 L21.5,1 C21.776,1 22,0.776 22,0.5 C22,0.224 21.776,0 21.5,0 L0.5,0 C0.224,0 0,0.224 0,0.5 C0,0.776 0.224,1 0.5,1" id="Fill-3"></path>
                    <path d="M21.5,12 L0.5,12 C0.224,12 0,12.224 0,12.5 C0,12.776 0.224,13 0.5,13 L21.5,13 C21.776,13 22,12.776 22,12.5 C22,12.224 21.776,12 21.5,12" id="Fill-5"></path>
                </g>
            </g>
        </g>
    </g>
</svg>