<?xml version="1.0" encoding="UTF-8"?>
<svg width="22px" height="20px" viewBox="0 0 22 20" version="1.1" xmlns="http://www.w3.org/2000/svg" xmlns:xlink="http://www.w3.org/1999/xlink">
    <!-- Generator: Sketch 45.2 (43514) - http://www.bohemiancoding.com/sketch -->
    <title>Page 1</title>
    <desc>Created with Sketch.</desc>
    <defs></defs>
    <g id="Page-1" stroke="none" stroke-width="1" fill="none" fill-rule="evenodd">
        <g id="01-listing" transform="translate(-241.000000, -602.000000)" fill="#5B5855">
            <g id="tabbar" transform="translate(0.000000, 583.000000)">
                <path d="M262,37 C262,37.551 261.552,38 261,38 L243,38 C242.448,38 242,37.551 242,37 L242,30 L247.5,30 C247.775,30 248,30.224 248,30.5 L248,32 C248,33.103 248.897,34 250,34 L254,34 C255.103,34 256,33.103 256,32 L256,30.5 C256,30.224 256.225,30 256.5,30 L262,30 L262,37 Z M245.633,20.684 C245.769,20.275 246.15,20 246.581,20 L257.419,20 C257.85,20 258.231,20.275 258.379,20.715 L261.756,29 L256.5,29 C255.673,29 255,29.673 255,30.5 L255,32 C255,32.551 254.552,33 254,33 L250,33 C249.448,33 249,32.551 249,32 L249,30.5 C249,29.673 248.327,29 247.5,29 L242.244,29 L245.633,20.684 Z M263,29.506 L263,29.5 C263,29.464 262.987,29.433 262.98,29.399 C262.974,29.37 262.975,29.34 262.963,29.311 L262.961,29.306 C262.961,29.306 262.961,29.305 262.96,29.305 L259.316,20.368 C259.044,19.55 258.281,19 257.419,19 L246.581,19 C245.719,19 244.956,19.55 244.695,20.337 L241.04,29.305 C241.039,29.305 241.039,29.306 241.039,29.306 L241.037,29.311 C241.025,29.34 241.026,29.37 241.02,29.399 C241.013,29.433 241,29.464 241,29.5 L241,29.506 C241,29.506 241,29.506 241,29.507 L241,37 C241,38.103 241.897,39 243,39 L261,39 C262.103,39 263,38.103 263,37 L263,29.507 L263,29.506 L263,29.506 Z" id="Page-1"></path>
            </g>
        </g>
    </g>
</svg>