<?xml version="1.0" encoding="UTF-8"?>
<svg width="24px" height="24px" viewBox="0 0 24 24" version="1.1" xmlns="http://www.w3.org/2000/svg" xmlns:xlink="http://www.w3.org/1999/xlink">
    <!-- Generator: Sketch 45.2 (43514) - http://www.bohemiancoding.com/sketch -->
    <title>Fill 1</title>
    <desc>Created with Sketch.</desc>
    <defs></defs>
    <g id="Page-1" stroke="none" stroke-width="1" fill="none" fill-rule="evenodd">
        <g id="01-listing" transform="translate(-96.000000, -600.000000)" fill="#5B5855">
            <g id="tabbar" transform="translate(0.000000, 583.000000)">
                <path d="M118.5713,39.5811 C118.0513,40.1141 117.0923,40.1191 116.5633,39.5761 L110.2683,33.2811 C111.0413,32.7211 111.7203,32.0421 112.2813,31.2691 L118.5793,37.5661 C118.8503,37.8341 119.0003,38.1901 119.0003,38.5701 C119.0003,38.9491 118.8503,39.3061 118.5713,39.5811 M97.0003,26.0001 C97.0003,21.5891 100.5893,18.0001 105.0003,18.0001 C109.4113,18.0001 113.0003,21.5891 113.0003,26.0001 C113.0003,30.4111 109.4113,34.0001 105.0003,34.0001 C100.5893,34.0001 97.0003,30.4111 97.0003,26.0001 M119.2833,36.8561 L112.8373,30.4101 C113.5743,29.1051 114.0003,27.6031 114.0003,26.0001 C114.0003,21.0371 109.9633,17.0001 105.0003,17.0001 C100.0373,17.0001 96.0003,21.0371 96.0003,26.0001 C96.0003,30.9631 100.0373,35.0001 105.0003,35.0001 C106.6023,35.0001 108.1053,34.5741 109.4103,33.8371 L115.8513,40.2781 C116.2993,40.7371 116.9253,41.0001 117.5703,41.0001 C118.2153,41.0001 118.8413,40.7371 119.2803,40.2861 C119.7453,39.8281 120.0003,39.2191 120.0003,38.5701 C120.0003,37.9211 119.7453,37.3111 119.2833,36.8561" id="Fill-1"></path>
            </g>
        </g>
    </g>
</svg>