<?xml version="1.0" encoding="UTF-8"?>
<svg width="22px" height="24px" viewBox="0 0 22 24" version="1.1" xmlns="http://www.w3.org/2000/svg" xmlns:xlink="http://www.w3.org/1999/xlink">
    <!-- Generator: Sketch 45.2 (43514) - http://www.bohemiancoding.com/sketch -->
    <title>Fill 1</title>
    <desc>Created with Sketch.</desc>
    <defs></defs>
    <g id="Page-1" stroke="none" stroke-width="1" fill="none" fill-rule="evenodd">
        <g id="01-listing" transform="translate(-313.000000, -600.000000)" fill="#5B5855">
            <g id="tabbar" transform="translate(0.000000, 583.000000)">
                <path d="M333.667775,39.511 C333.404775,39.822 333.020775,40 332.614775,40 L315.384775,40 C314.978775,40 314.594775,39.822 314.331775,39.511 C314.064775,39.196 313.950775,38.781 314.019775,38.372 C314.658775,34.551 317.043775,31.332 320.256775,29.905 C321.340775,30.595 322.622775,31 323.999775,31 C325.376775,31 326.658775,30.595 327.742775,29.905 C330.955775,31.332 333.340775,34.551 333.979775,38.371 C334.048775,38.781 333.934775,39.196 333.667775,39.511 M317.999775,24 C317.999775,20.692 320.690775,18 323.999775,18 C327.308775,18 329.999775,20.692 329.999775,24 C329.999775,27.309 327.308775,30 323.999775,30 C320.690775,30 317.999775,27.309 317.999775,24 M334.966775,38.206 C334.303775,34.251 331.897775,30.896 328.629775,29.236 C330.079775,27.953 330.999775,26.084 330.999775,24 C330.999775,20.141 327.859775,17 323.999775,17 C320.139775,17 316.999775,20.141 316.999775,24 C316.999775,26.084 317.919775,27.953 319.369775,29.236 C316.101775,30.896 313.695775,34.251 313.032775,38.207 C312.916775,38.907 313.111775,39.617 313.568775,40.157 C314.021775,40.693 314.684775,41 315.384775,41 L332.614775,41 C333.314775,41 333.977775,40.693 334.430775,40.157 C334.887775,39.617 335.083775,38.907 334.966775,38.206" id="Fill-1"></path>
            </g>
        </g>
    </g>
</svg>