<?xml version="1.0" encoding="UTF-8"?>
<svg width="24px" height="24px" viewBox="0 0 24 24" version="1.1" xmlns="http://www.w3.org/2000/svg" xmlns:xlink="http://www.w3.org/1999/xlink">
    <!-- Generator: Sketch 45.2 (43514) - http://www.bohemiancoding.com/sketch -->
    <title>Page 1</title>
    <desc>Created with Sketch.</desc>
    <defs></defs>
    <g id="Page-1" stroke="none" stroke-width="1" fill="none" fill-rule="evenodd">
        <g id="03-product" transform="translate(-228.000000, -464.000000)" fill="#5B5855">
            <g id="Page-1" transform="translate(228.000000, 464.000000)">
                <path d="M15.5,8 C14.672,8 14,8.672 14,9.5 C14,10.328 14.672,11 15.5,11 C16.328,11 17,10.328 17,9.5 C17,8.672 16.328,8 15.5,8" id="Fill-1"></path>
                <path d="M10,9.5 C10,8.672 9.328,8 8.5,8 C7.672,8 7,8.672 7,9.5 C7,10.328 7.672,11 8.5,11 C9.328,11 10,10.328 10,9.5" id="Fill-3"></path>
                <path d="M15.6630052,14.0239639 C15.4040186,13.9461305 15.1170334,14.0668161 15.0270381,14.2950692 C14.5960604,15.3899846 13.3791234,16.1254669 12.0001948,16.1254669 C10.6212662,16.1254669 9.40432926,15.3899846 8.97335157,14.2950692 C8.88335624,14.0668161 8.59837099,13.945256 8.33738451,14.0239639 C8.07639802,14.1026719 7.93740522,14.3519138 8.02740056,14.580167 C8.59937094,16.0275192 10.1952883,17 12.0001948,17 C13.8051014,17 15.4010187,16.0275192 15.9729891,14.580167 C16.0619845,14.3519138 15.9239917,14.1026719 15.6630052,14.0239639" id="Fill-5"></path>
                <path d="M12,23 C9.85,23 7.763,22.374 5.966,21.188 C5.883,21.133 5.787,21.105 5.69,21.105 C5.633,21.105 5.574,21.115 5.519,21.136 L1.271,22.687 L2.658,18.125 C2.7,17.989 2.681,17.84 2.605,17.718 C1.556,16.008 1,14.03 1,12 C1,5.935 5.935,1 12,1 C18.065,1 23,5.935 23,12 C23,18.065 18.065,23 12,23 M12,0 C5.383,0 0,5.383 0,12 C0,14.139 0.565,16.225 1.637,18.047 L0.021,23.354 C-0.033,23.536 0.019,23.733 0.156,23.863 C0.251,23.953 0.374,24 0.5,24 C0.558,24 0.615,23.99 0.672,23.97 L5.629,22.16 C7.541,23.365 9.738,24 12,24 C18.617,24 24,18.617 24,12 C24,5.383 18.617,0 12,0" id="Fill-7"></path>
            </g>
        </g>
    </g>
</svg>