<?xml version="1.0" encoding="UTF-8"?>
<svg width="24px" height="20px" viewBox="0 0 24 20" version="1.1" xmlns="http://www.w3.org/2000/svg" xmlns:xlink="http://www.w3.org/1999/xlink">
    <!-- Generator: Sketch 45.2 (43514) - http://www.bohemiancoding.com/sketch -->
    <title>Page 1 Copy 19</title>
    <desc>Created with Sketch.</desc>
    <defs></defs>
    <g id="Page-1" stroke="none" stroke-width="1" fill="none" fill-rule="evenodd">
        <g id="01-listing" transform="translate(-168.000000, -602.000000)" fill="#5B5855">
            <g id="tabbar" transform="translate(0.000000, 583.000000)">
                <g id="Page-1-Copy-19" transform="translate(168.000000, 19.000000)">
                    <path d="M23,18 C23,18.552 22.552,19 22,19 L2,19 C1.448,19 1,18.552 1,18 L1,7 C1,6.449 1.448,6 2,6 L4.85,6 C5.627,6 6.341,5.543 6.666,4.836 L8.163,1.582 C8.325,1.228 8.682,1 9.071,1 L14.928,1 C15.317,1 15.674,1.229 15.837,1.582 L17.333,4.836 C17.658,5.543 18.372,6 19.15,6 L22,6 C22.552,6 23,6.449 23,7 L23,18 Z M22,5 L19.15,5 C18.761,5 18.404,4.771 18.241,4.418 L16.745,1.164 C16.42,0.457 15.706,0 14.928,0 L9.071,0 C8.292,0 7.579,0.457 7.255,1.164 L5.758,4.418 C5.595,4.771 5.238,5 4.85,5 L2,5 C0.897,5 0,5.897 0,7 L0,18 C0,19.103 0.897,20 2,20 L22,20 C23.103,20 24,19.103 24,18 L24,7 C24,5.897 23.103,5 22,5 L22,5 Z" id="Fill-1"></path>
                    <path d="M12,15 C9.794,15 8,13.206 8,11 C8,8.794 9.794,7 12,7 C14.206,7 16,8.794 16,11 C16,13.206 14.206,15 12,15 M12,6 C9.243,6 7,8.243 7,11 C7,13.757 9.243,16 12,16 C14.757,16 17,13.757 17,11 C17,8.243 14.757,6 12,6" id="Fill-3"></path>
                </g>
            </g>
        </g>
    </g>
</svg>