<?xml version="1.0" encoding="UTF-8"?>
<svg width="19px" height="24px" viewBox="0 0 19 24" version="1.1" xmlns="http://www.w3.org/2000/svg" xmlns:xlink="http://www.w3.org/1999/xlink">
    <!-- Generator: Sketch 45.2 (43514) - http://www.bohemiancoding.com/sketch -->
    <title>Fill 1 Copy</title>
    <desc>Created with Sketch.</desc>
    <defs></defs>
    <g id="Page-1" stroke="none" stroke-width="1" fill="none" fill-rule="evenodd">
        <g id="01-listing" transform="translate(-111.000000, -410.000000)" fill="#5B5855">
            <path d="M129.018642,413.74801 L129.012742,426.982171 C129.012742,430.300943 125.780555,433.001873 121.806941,433.001873 C116.45274,433.001873 113.317902,428.958462 112.218545,427.219725 C111.825215,426.597893 111.931414,425.814363 112.438809,425.189536 L116.309174,422.00651 C116.856886,421.449555 117.750728,421.450553 118.324006,422.032461 C118.870734,422.58742 118.870734,423.490724 118.371206,424.002763 L116.360307,425.575811 C116.193142,425.705567 116.127259,425.930146 116.194125,426.131767 C116.261975,426.333389 116.44979,426.470132 116.660221,426.470132 C118.031959,426.470132 119.149015,427.594023 119.149015,428.976428 C119.149015,429.251911 119.36928,429.475492 119.640677,429.475492 C119.912075,429.475492 120.13234,429.251911 120.13234,428.976428 C120.13234,427.460274 119.173598,426.165704 117.836277,425.678618 L118.917934,424.83021 C119.143115,424.923036 119.38403,424.994901 119.641661,424.994901 L119.779326,424.994901 C120.554186,424.994901 121.222846,424.620604 121.648626,424.040692 C122.085222,424.616611 122.763716,424.994901 123.532675,424.994901 L123.676241,424.994901 C124.728398,424.994901 125.61339,424.295214 125.93002,423.334018 C126.010653,423.245185 126.062769,423.128404 126.062769,422.998648 L126.062769,422.572448 L126.062769,418.433216 L126.062769,412.422497 C126.062769,411.650945 126.721596,410.999169 127.511206,410.999169 C128.321465,410.968227 128.990126,411.644957 129.026509,412.469409 C129.034375,412.649072 129.025526,413.277892 129.018642,413.74801 L129.018642,413.74801 Z M114.262876,412.422497 C114.262876,411.662923 114.93842,411.021128 115.776213,411.021128 C116.568772,411.021128 117.212849,411.649947 117.212849,412.422497 L117.212849,418.437209 L117.212849,420.596157 C116.638588,420.615121 116.076126,420.834709 115.652314,421.2659 L114.262876,422.410751 L114.262876,412.422497 Z M119.641661,417.009888 L119.779326,417.009888 C120.546319,417.009888 121.146147,417.636711 121.146147,418.437209 L121.146147,422.568455 C121.146147,423.369951 120.546319,423.996774 119.779326,423.996774 L119.641661,423.996774 C119.608228,423.996774 119.567911,423.975814 119.531528,423.969825 C119.889458,423.089477 119.71541,422.034457 118.994633,421.300834 C118.759619,421.062282 118.486255,420.884615 118.196174,420.765838 L118.196174,418.437209 C118.196174,417.649687 118.844185,417.009888 119.641661,417.009888 L119.641661,417.009888 Z M122.129471,418.433216 C122.129471,417.647691 122.758799,417.009888 123.532675,417.009888 L123.676241,417.009888 C124.450117,417.009888 125.079445,417.647691 125.079445,418.433216 L125.079445,422.572448 C125.079445,423.357973 124.450117,423.996774 123.676241,423.996774 L123.532675,423.996774 C122.758799,423.996774 122.129471,423.357973 122.129471,422.572448 L122.129471,422.568455 L122.129471,418.437209 L122.129471,418.433216 Z M129.996067,412.423495 C129.938051,411.079019 128.843611,410.000044 127.542672,410.000044 C126.158152,409.992059 125.079445,411.074028 125.079445,412.422497 L125.079445,416.483875 C124.685132,416.190426 124.202319,416.011761 123.676241,416.011761 L123.532675,416.011761 C122.762732,416.011761 122.085222,416.389053 121.648626,416.964972 C121.222846,416.38506 120.554186,416.011761 119.779326,416.011761 L119.641661,416.011761 C119.097882,416.011761 118.601304,416.196414 118.196174,416.498847 L118.196174,412.422497 C118.196174,411.098981 117.111567,410.023001 115.737863,410.023001 C114.381859,410.023001 113.279552,411.098981 113.279552,412.422497 L113.279552,423.22123 L111.752449,424.479868 C110.899907,425.507938 110.761258,426.76458 111.390586,427.759712 C112.577458,429.63619 115.967961,434 121.806941,434 C126.322367,434 129.996067,430.851908 129.996067,426.982171 C129.996067,426.982171 130.004917,412.611143 129.996067,412.423495 L129.996067,412.423495 Z" id="Fill-1-Copy"></path>
        </g>
    </g>
</svg>